# xmcd
#
# Track frame offsets:
#	150
#	11325
#	23875
#	36497
#	45282
#	59875
#	67855
#	76527
#	87895
#	99317
#	109572
#	120200
#	135202
#	146847
#	157412
#	168870
#
# Disc length: 2387 seconds
#
# Revision: 1
# Processed by: cddbd v1.5PL3 Copyright (c) Steve Scherf et al.
# Submitted via: audiograbber 1.83.01
#
DISCID=be095110
DTITLE=Astoria - Country Superstars
DYEAR=1900
DGENRE=Country
TTITLE0=Don Williams - Storybook Children
TTITLE1=Leroy Van Dyke - Auctioneer
TTITLE2=Patsy Cline - Just A Closer Walk With Thee
TTITLE3=Willie Nelson - Waiting Time
TTITLE4=Johnny Burnette - The Ballard Of One Eyed Jack
TTITLE5=Faron Young - Hey Mr Blue Bird
TTITLE6=Billie Jo Spears - You´re My Man
TTITLE7=Johnny Paycheck - I Don´t Need To Know That Right Now
TTITLE8=Conway Twitty - I Love You More Today
TTITLE9=George Jones - Walk Through This World With Me
TTITLE10=Johnny Cash - Train Of Love
TTITLE11=Carl Perkins - I Don´t Want To Fall In Love Agian
TTITLE12=Patsy Cline - Newer No More
TTITLE13=Freddy Fender - A Man Can Cry
TTITLE14=Willie Nelson - I´ll Stay Around
TTITLE15=Johnny Paycheck - A 11
EXTD=
EXTT0=
EXTT1=
EXTT2=
EXTT3=
EXTT4=
EXTT5=
EXTT6=
EXTT7=
EXTT8=
EXTT9=
EXTT10=
EXTT11=
EXTT12=
EXTT13=
EXTT14=
EXTT15=
PLAYORDER=
